<?xml version="1.0" encoding="utf-8"?>
<!-- Generator: Adobe Illustrator 23.0.1, SVG Export Plug-In . SVG Version: 6.00 Build 0)  -->
<svg version="1.1" id="Слой_1" xmlns="http://www.w3.org/2000/svg" xmlns:xlink="http://www.w3.org/1999/xlink" x="0px" y="0px"
	 viewBox="0 0 262 192" style="enable-background:new 0 0 262 192;" xml:space="preserve">
<style type="text/css">
	.st0{fill:#EAEBFB;}
	.st1{clip-path:url(#SVGID_2_);fill:#DFE0F3;}
	.st2{fill:#C7CBE8;}
	.st3{fill:#93B7FA;}
	.st4{fill:#FFFFFF;}
	.st5{fill:none;stroke:#E8E9F9;stroke-width:0.8987;stroke-linecap:round;stroke-linejoin:round;stroke-miterlimit:10;}
	.st6{fill:#E8E9F9;}
	.st7{fill:#C5C9E6;}
	.st8{fill:#3D415B;}
	.st9{fill:none;stroke:#3D415B;stroke-width:2.4961;stroke-miterlimit:10;}
	.st10{fill:#E3BC9A;}
	.st11{fill:#D8AC89;}
	.st12{fill:#7C6EF2;}
	.st13{fill:#303348;}
	.st14{fill:#282C3C;}
	.st15{fill:#583BF5;}
	.st16{fill:#DDB28D;}
	.st17{fill:#A9C9FA;}
	.st18{fill:#82A7E7;}
	.st19{fill:#8EB6EC;}
	.st20{fill:#ECF2F5;}
	.st21{fill:#29323D;}
	.st22{fill:#4747CC;}
	.st23{fill:none;stroke:#3D415B;stroke-width:2;stroke-miterlimit:10;}
</style>
<g>
	<g>
		<g>
			<g>
				<g>
					<path class="st0" d="M176.92,77.03C142.43,56.19,126.15-7.84,72.91,30.42C19.67,68.69,41.75,147.3,92.77,166.31
						c51.02,19.01,116.67,8.27,135.14-27.05C259.47,78.91,200.06,91.01,176.92,77.03z"/>
					<g>
						<defs>
							<path id="SVGID_1_" d="M176.92,77.03C142.43,56.19,126.15-7.84,72.91,30.42C19.67,68.69,41.75,147.3,92.77,166.31
								c51.02,19.01,116.67,8.27,135.14-27.05C259.47,78.91,200.06,91.01,176.92,77.03z"/>
						</defs>
						<clipPath id="SVGID_2_">
							<use xlink:href="#SVGID_1_"  style="overflow:visible;"/>
						</clipPath>
						<path class="st1" d="M37.02,151.12c0,0,29.41-29.49,78.53-15.5c49.12,13.99,78.04,2,71.95-72.16c0,0,69.04,9.63,60.19,58.69
							C236.95,181.69,98.28,204.41,37.02,151.12z"/>
					</g>
					<g>
						<g>
							<path class="st2" d="M101.43,29.93v28.76c0,2.48-2.01,4.48-4.49,4.48H35.61c-2.48,0-4.49-2-4.49-4.48V29.93
								c0-2.48,2.01-4.48,4.49-4.48h61.33C99.42,25.45,101.43,27.45,101.43,29.93z"/>
						</g>
						<g>
							<path class="st3" d="M101.43,29.93v2.49H31.12v-2.49c0-2.48,2.01-4.48,4.49-4.48h61.33
								C99.42,25.45,101.43,27.45,101.43,29.93z"/>
							<g>
								<circle class="st4" cx="35.08" cy="29.27" r="0.94"/>
								<path class="st4" d="M39.79,29.27c0,0.52-0.42,0.94-0.94,0.94c-0.52,0-0.94-0.42-0.94-0.94s0.42-0.94,0.94-0.94
									C39.37,28.33,39.79,28.75,39.79,29.27z"/>
								<path class="st4" d="M43.56,29.27c0,0.52-0.42,0.94-0.94,0.94s-0.94-0.42-0.94-0.94s0.42-0.94,0.94-0.94
									S43.56,28.75,43.56,29.27z"/>
							</g>
						</g>
						<path class="st4" d="M54.79,49.69H40.67c-0.46,0-0.83-0.37-0.83-0.83V37.43c0-0.46,0.37-0.83,0.83-0.83h14.12
							c0.46,0,0.83,0.37,0.83,0.83v11.43C55.63,49.31,55.25,49.69,54.79,49.69z"/>
						<g>
							<path class="st4" d="M91.71,55.81H39.84c-0.55,0-0.99-0.44-0.99-0.99l0,0c0-0.55,0.44-0.99,0.99-0.99h51.86
								c0.55,0,0.99,0.44,0.99,0.99l0,0C92.7,55.37,92.25,55.81,91.71,55.81z"/>
						</g>
						<g>
							<path class="st4" d="M91.71,48.32H60.24c-0.55,0-0.99-0.44-0.99-0.99l0,0c0-0.55,0.44-0.99,0.99-0.99h31.46
								c0.55,0,0.99,0.44,0.99,0.99l0,0C92.7,47.88,92.25,48.32,91.71,48.32z"/>
						</g>
						<g>
							<path class="st4" d="M79.73,41.28H60.24c-0.55,0-0.99-0.44-0.99-0.99l0,0c0-0.55,0.44-0.99,0.99-0.99h19.49
								c0.55,0,0.99,0.44,0.99,0.99l0,0C80.72,40.83,80.28,41.28,79.73,41.28z"/>
						</g>
					</g>
					<path class="st5" d="M2.19,85.06c0,0,1.15-1.32,1.85-1.92c1.26-1.09,2.71-3.01,7.35-1.59c0.36,0.11,0.71,0.26,1.06,0.4
						c0.41,0.17,1.68,0.18,2.97-0.85c2.06-1.64,2.87-2.87,5.69-2.91c3.29-0.04,3.8,4.05,6.36,5.1c1.63,0.67,5.91,1.33,6.8,1.63
						L2.19,85.06z"/>
					<path class="st6" d="M176.57,26.23c0,0,2.25-2.59,3.63-3.78c2.49-2.14,5.34-5.92,14.46-3.13c0.71,0.22,1.4,0.5,2.08,0.79
						c0.8,0.34,3.29,0.35,5.84-1.68c4.05-3.22,5.64-5.65,11.19-5.72c6.46-0.09,7.48,7.97,12.5,10.03c3.2,1.31,11.62,2.62,13.37,3.2
						L176.57,26.23z"/>
					<g>
						<path class="st4" d="M126.72,50.29l-0.47-1.33l-0.47,1.33c-0.39,1.12-1.33,2.07-2.59,2.64l0,0l0,0
							c1.26,0.56,2.2,1.51,2.59,2.64l0.47,1.33l0.47-1.33c0.39-1.13,1.33-2.07,2.59-2.64l0,0l0,0
							C128.05,52.37,127.12,51.42,126.72,50.29z"/>
						<path class="st4" d="M84.62,126.59l-0.47-1.33l-0.47,1.33c-0.39,1.12-1.33,2.07-2.59,2.64l0,0l0,0
							c1.26,0.56,2.2,1.51,2.59,2.64l0.47,1.33l0.47-1.33c0.39-1.13,1.33-2.07,2.59-2.64l0,0l0,0
							C85.95,128.66,85.01,127.71,84.62,126.59z"/>
						<path class="st4" d="M210.85,118.55l-0.31-0.88l-0.31,0.88c-0.26,0.74-0.87,1.37-1.71,1.74l0,0l0,0
							c0.83,0.37,1.45,1,1.71,1.74l0.31,0.88l0.31-0.88c0.26-0.74,0.87-1.37,1.71-1.74l0,0l0,0
							C211.72,119.92,211.11,119.29,210.85,118.55z"/>
						<path class="st4" d="M64.27,74.26l-0.31-0.88l-0.31,0.88C63.4,75,62.78,75.63,61.95,76l0,0l0,0c0.83,0.37,1.45,1,1.71,1.74
							l0.31,0.88l0.31-0.88c0.26-0.74,0.87-1.37,1.71-1.74l0,0l0,0C65.15,75.63,64.53,75,64.27,74.26z"/>
					</g>
					<g>
						<path class="st3" d="M164.02,2.09h-29.19c-1.59,0-2.88,1.29-2.88,2.88v15.77c0,1.59,1.29,2.88,2.88,2.88h1.57v7.21l7.21-7.21
							h20.4c1.59,0,2.88-1.29,2.88-2.88V4.97C166.9,3.38,165.61,2.09,164.02,2.09z"/>
						<g>
							<path class="st4" d="M138.92,17.54h6.89c0.53,0,0.96,0.43,0.96,0.96l0,0c0,0.53-0.43,0.96-0.96,0.96h-6.89
								c-0.53,0-0.96-0.43-0.96-0.96l0,0C137.96,17.97,138.39,17.54,138.92,17.54z"/>
						</g>
						<g>
							<path class="st4" d="M138.92,12.72h12.69c0.53,0,0.96,0.43,0.96,0.96l0,0c0,0.53-0.43,0.96-0.96,0.96h-12.69
								c-0.53,0-0.96-0.43-0.96-0.96l0,0C137.96,13.15,138.39,12.72,138.92,12.72z"/>
						</g>
						<g>
							<path class="st4" d="M138.92,8.04h21.81c0.53,0,0.96,0.43,0.96,0.96l0,0c0,0.53-0.43,0.96-0.96,0.96h-21.81
								c-0.53,0-0.96-0.43-0.96-0.96l0,0C137.96,8.47,138.39,8.04,138.92,8.04z"/>
						</g>
					</g>
					<g>
						<path class="st7" d="M145.92,137.4h33.8c6.78,0,12.48-5.1,13.22-11.85l4.87-50.73h-33.78l-0.69,29.42L145.92,137.4z"/>
						<g>
							<path class="st8" d="M145.92,136.85c8.68-0.35,17.37-0.5,26.05-0.64l6.51-0.05c0.53-0.01,1.12,0.01,1.59-0.03
								c0.49-0.02,0.98-0.06,1.47-0.15c0.97-0.14,1.92-0.43,2.82-0.82c3.63-1.52,6.36-4.91,7.12-8.75c0.17-0.91,0.26-2.04,0.37-3.11
								l0.32-3.24l0.64-6.48c0.41-4.32,0.88-8.64,1.34-12.95c0.9-8.63,1.86-17.26,2.9-25.88c0.05-0.43,0.44-0.73,0.86-0.68
								c0.41,0.05,0.71,0.42,0.68,0.82c-0.61,8.66-1.32,17.32-2.08,25.97c-0.37,4.33-0.73,8.65-1.15,12.98l-0.61,6.48l-0.31,3.24
								c-0.11,1.09-0.17,2.12-0.39,3.35c-0.9,4.69-4.23,8.88-8.69,10.63c-1.1,0.45-2.26,0.78-3.43,0.94
								c-0.59,0.1-1.18,0.14-1.77,0.15c-0.61,0.03-1.11,0-1.66,0.01l-6.51-0.05c-8.68-0.14-17.37-0.29-26.05-0.64
								c-0.3-0.01-0.54-0.27-0.52-0.57C145.41,137.09,145.64,136.86,145.92,136.85z"/>
						</g>
						<line class="st9" x1="165.25" y1="138.35" x2="165.25" y2="174.18"/>
					</g>
					<g>
						
							<rect x="62.68" y="104.79" transform="matrix(-1 -1.224647e-16 1.224647e-16 -1 234.3094 211.2731)" class="st8" width="108.95" height="1.69"/>
						<polygon class="st10" points="158.78,180.95 159.94,185.09 154.31,186.8 152.55,181.68 						"/>
						<polygon class="st10" points="124.79,177.94 124.79,181.27 129.78,181.27 130.33,177.94 						"/>
						<g>
							<g>
								<path class="st11" d="M163.08,81.66l-7.53,18.58l-0.17,0.41c-0.45,1.11-1.52,1.77-2.64,1.77l-21.44-0.15
									c-0.87-0.01-1.56-0.71-1.56-1.58c0.01-0.79,0.59-1.43,1.34-1.54l21.21-3.1l-2.81,2.18l5.07-19.4
									c0.63-2.4,3.09-3.84,5.49-3.22c2.4,0.63,3.84,3.09,3.22,5.49C163.21,81.29,163.14,81.49,163.08,81.66z"/>
								<path class="st11" d="M133.63,98.77l-7.32-0.15c-1.81,0-3.28,1.63-3.28,3.65v0h10.69L133.63,98.77z"/>
							</g>
							<g>
								<path class="st12" d="M151.22,83.92l11.72,2.86l1.92-10.45c0.52-2.81-1.44-5.48-4.31-5.89l0,0
									c-2.42-0.35-4.75,1.02-5.58,3.28L151.22,83.92z"/>
							</g>
						</g>
						<path class="st13" d="M163.34,104.23l-36.11,18.33c-3.35,1.7-5.38,5.23-5.16,8.98l2.72,46.4h5.54l7.48-49.65l28.12-19.74
							L163.34,104.23z"/>
						<path class="st14" d="M156.97,40.86c0,0,10.04-3.41,15.31,6.09c0.31,0.55,0.64,1.08,1.05,1.57c1.07,1.26,3.3,3.59,5.76,4.35
							c9.77,3,15.95,21.46-3.49,23.11c-24.33,2.06-31.24-2.74-27.76-12.44c2.48-6.92,0.27-11.83,0.27-11.83L156.97,40.86z"/>
						<path class="st15" d="M164.98,65.65l-5.19,2.31c-3.09,1.38-5.08,4.45-5.04,7.84c0.08,6.82,1.63,23.75,7.39,30.22h17.56
							c2.72-11.99,1.15-30.43,1.15-30.43c0.18-4.52-3.15-8.42-7.64-8.96L164.98,65.65z"/>
						<g>
							<g>
								<g>
									<path class="st16" d="M165.46,71.24L165.46,71.24c-1.83,0.21-3.49-1.09-3.72-2.91l-1.43-11.16l6.68-0.78l1.42,11.08
										C168.65,69.33,167.32,71.02,165.46,71.24z"/>
									<path class="st10" d="M159.95,65.49l-0.27,0.03c-4.45,0.58-8.53-2.56-9.11-7.01l-1.27-9.72l16.39-2.14l1.27,9.72
										C167.54,60.84,164.4,64.91,159.95,65.49z"/>
								</g>
								<path class="st14" d="M167.49,52.65l-1.4,2.9c0,0-1.86,1.61-2.39-2.44c-0.45-3.43-2.94-2.84-2.94-2.84
									s-8.54,6.46-13.55,2.03c-3.96-3.5,2.44-9.9,9.76-11.44l9.6,4.19L167.49,52.65z"/>
								<path class="st10" d="M165.12,55.67c0.18,1.49,1.53,2.54,3.02,2.36c1.49-0.18,2.54-1.53,2.36-3.02
									c-0.18-1.49-1.53-2.54-3.02-2.36C166,52.83,164.94,54.18,165.12,55.67z"/>
								<path class="st4" d="M167.33,56.61c0.03,0.27,0.28,0.46,0.54,0.43c0.27-0.03,0.46-0.28,0.43-0.54
									c-0.03-0.27-0.28-0.46-0.54-0.43C167.49,56.1,167.3,56.34,167.33,56.61z"/>
							</g>
							<path class="st4" d="M153.48,60.79l4.6-0.98c0,0,0.22,2-2.3,2.36C153.8,62.45,153.48,60.79,153.48,60.79z"/>
						</g>
						<path class="st8" d="M179.7,106.02h-17.56l-28.09,16.97c-3.31,2-4.62,6.15-3.07,9.69l21.56,49l6.23-0.73l-11.59-47.28
							c9.72-0.41,27.78-1.88,32.5-7.14C187.68,117.62,179.7,106.02,179.7,106.02z"/>
						<g>
							<path class="st3" d="M119.82,75.27l10.02,26.92H97.28l-9.27-25.36c-0.28-0.76,0.28-1.56,1.09-1.56H119.82z"/>
							<path class="st17" d="M119.82,75.27h1.56c0.84,0,1.59,0.52,1.88,1.31l9.45,25.61h-2.86L119.82,75.27z"/>
							<path class="st18" d="M99.72,104.79h30.12v-2.59H97.37v0.24C97.37,103.74,98.42,104.79,99.72,104.79z"/>
							<path class="st19" d="M129.84,104.79h20.09c0.72,0,1.3-0.58,1.3-1.3l0,0c0-0.72-0.58-1.3-1.3-1.3h-20.09V104.79z"/>
							<path class="st20" d="M111.66,88.66c0.62,1.86-0.13,3.78-1.66,4.29c-1.53,0.51-3.27-0.59-3.89-2.45
								c-0.62-1.86,0.13-3.78,1.66-4.29C109.31,85.7,111.05,86.79,111.66,88.66z"/>
						</g>
						<g>
							<g>
								<path class="st10" d="M176.81,81.15l-7.54,18.94l-0.17,0.42c-0.45,1.12-1.53,1.8-2.67,1.8l-21.44-0.14
									c-0.87-0.01-1.58-0.72-1.57-1.59c0.01-0.79,0.59-1.44,1.35-1.56l21.21-3.14l-2.84,2.22l5.05-19.75
									c0.62-2.43,3.1-3.9,5.53-3.27c2.43,0.62,3.9,3.1,3.27,5.53C176.95,80.78,176.88,80.98,176.81,81.15z"/>
								<path class="st10" d="M147.32,98.62L140,98.47c-1.81,0-3.28,1.66-3.28,3.72l0,0h10.69L147.32,98.62z"/>
							</g>
							<g>
								<path class="st12" d="M164.91,83.49l11.72,2.92l1.92-10.64c0.52-2.86-1.44-5.58-4.31-6l0,0c-2.42-0.36-4.75,1.04-5.58,3.34
									L164.91,83.49z"/>
							</g>
						</g>
						<path class="st21" d="M150.65,182.82l-2.73,2.7l-6.15,1.5c-0.63,0.15-1.15,0.62-1.36,1.23l-0.31,0.89
							c-0.16,0.44,0.18,0.9,0.65,0.89l19.78-0.48c0.64-0.01,1.14-0.57,1.09-1.21l-1.56-5.6l-2.99,0.71c-1,0.33-2.09,0.22-3-0.31
							l-1.06-0.62C152.24,182.08,151.28,182.2,150.65,182.82z"/>
						<path class="st21" d="M122.26,178.93l-2.73,2.7l-6.15,1.5c-0.63,0.15-1.15,0.62-1.36,1.23l-0.31,0.89
							c-0.16,0.44,0.18,0.9,0.65,0.89l17.9-0.38c0.64-0.01,1.14-0.57,1.09-1.21l-0.46-5.73l-2.21,0.73c-1,0.33-2.09,0.22-3-0.31
							l-1.06-0.62C123.85,178.19,122.89,178.32,122.26,178.93z"/>
					</g>
					<g>
						<path class="st22" d="M206.04,63h50.26c1.7,0,3.09-1.38,3.09-3.09V45.66c0-1.7-1.38-3.09-3.09-3.09h-50.26
							c-1.7,0-3.09,1.38-3.09,3.09v14.25C202.95,61.62,204.34,63,206.04,63z"/>
						<g>
							<path class="st4" d="M241.87,58.65h10.4c0.54,0,0.97-0.44,0.97-0.97V47.9c0-0.54-0.44-0.97-0.97-0.97h-10.4
								c-0.54,0-0.97,0.44-0.97,0.97v9.77C240.9,58.22,241.33,58.65,241.87,58.65z"/>
							<g>
								<path class="st4" d="M209.94,49.38h26.85c0.46,0,0.84-0.38,0.84-0.84l0,0c0-0.46-0.38-0.84-0.84-0.84h-26.85
									c-0.46,0-0.84,0.38-0.84,0.84l0,0C209.1,49.01,209.47,49.38,209.94,49.38z"/>
								<g>
									<path class="st4" d="M227.41,53.63h9.37c0.46,0,0.84-0.38,0.84-0.84v0c0-0.46-0.38-0.84-0.84-0.84h-9.37
										c-0.46,0-0.84,0.38-0.84,0.84v0C226.57,53.25,226.95,53.63,227.41,53.63z"/>
									<path class="st4" d="M209.94,53.63h11.2c0.46,0,0.84-0.38,0.84-0.84v0c0-0.46-0.38-0.84-0.84-0.84h-11.2
										c-0.46,0-0.84,0.38-0.84,0.84v0C209.1,53.25,209.47,53.63,209.94,53.63z"/>
								</g>
								<path class="st4" d="M216.66,57.88h20.13c0.46,0,0.84-0.38,0.84-0.84l0,0c0-0.46-0.38-0.84-0.84-0.84h-20.13
									c-0.46,0-0.84,0.38-0.84,0.84l0,0C215.82,57.5,216.19,57.88,216.66,57.88z"/>
							</g>
						</g>
					</g>
					<g>
						<path class="st3" d="M80.92,96.63c0,0,8.28,0.03,6.56-8.5C87.49,88.13,78.8,88.99,80.92,96.63z"/>
						<path class="st3" d="M79.89,96.17c0,0-8.39,0.03-6.64-8.6C73.24,87.57,82.04,88.44,79.89,96.17z"/>
						<path class="st18" d="M80.27,96.2c0,0-6.11-6.15,1.1-11.58C81.37,84.62,87.15,91.78,80.27,96.2z"/>
						<polygon class="st15" points="86.97,95.48 73.57,95.48 75.7,104.78 84.67,104.78 						"/>
					</g>
				</g>
				<line class="st23" x1="113.6" y1="106.48" x2="113.6" y2="172.11"/>
			</g>
		</g>
	</g>
</g>
</svg>
